# xmcd
#
# Track frame offsets: 
#        150
#        13357
#        24342
#        31837
#        45477
#        57330
#        69495
#        83587
#        93192
#        103217
#        116537
#        128180
#        141965
#        152987
#        169927
#        182017
#        195445
#        208707
#
# Disc length: 2949 seconds
#
# Revision: 0
# Processed by: cddbd v1.5.1PL0 Copyright (c) Steve Scherf et al.
# Submitted via: ExactAudioCopy v0.95a4
#
DISCID=f20b8312
DTITLE=Various Artist - Selection Of Country Gentlemen (787) CD 1
DYEAR=1997
DGENRE=Country
TTITLE0=Bobby Helems - My Special Angel
TTITLE1=Carl Perkins - Dixie Fried
TTITLE2=George Jones - Ragged But Right
TTITLE3=Willie Nelson - You'll Always Have Someone
TTITLE4=Roy Drusky - Take These Chains From My Heart
TTITLE5=Stonewall Jackson - Ol' Blue
TTITLE6=Kenny Rogers and The First Edition - Sunshine
TTITLE7=Ned Miller - From A Jack To King
TTITLE8=Buck Owens - Rhythm And Booze
TTITLE9=Don Williams - Ruby Tuesday
TTITLE10=Guy Mitchell - Heartaches By The Number
TTITLE11=B. J. Thomas - Raindrops Keep Falling On My Head
TTITLE12=Karl Denver - Love Me With All Of Your Heart
TTITLE13=Andre Lamberz - Help Me Make It Throught The Night
TTITLE14=Danny Williams - Moon River
TTITLE15=Johnny Tillotson - I'm So Lonesome I Could Cry
TTITLE16=George Jones - Wedding Bells
TTITLE17=Willie Nelson - Sheller Of Uour Arms
EXTD=
EXTT0=
EXTT1=
EXTT2=
EXTT3=
EXTT4=
EXTT5=
EXTT6=
EXTT7=
EXTT8=
EXTT9=
EXTT10=
EXTT11=
EXTT12=
EXTT13=
EXTT14=
EXTT15=
EXTT16=
EXTT17=
PLAYORDER=
